<?xml version="1.0" standalone="no"?>
<!DOCTYPE svg PUBLIC "-//W3C//DTD SVG 20010904//EN"
 "http://www.w3.org/TR/2001/REC-SVG-20010904/DTD/svg10.dtd">
<svg version="1.0" xmlns="http://www.w3.org/2000/svg"
 width="512.000000pt" height="512.000000pt" viewBox="0 0 512.000000 512.000000"
 preserveAspectRatio="xMidYMid meet">
<metadata>
Created by potrace 1.11, written by Peter Selinger 2001-2013
</metadata>
<g transform="translate(0.000000,512.000000) scale(0.100000,-0.100000)"
fill="#000000" stroke="none">
<path d="M4723 4819 c-46 -21 -49 -45 -7 -55 13 -3 24 -10 24 -14 0 -5 10 -10
23 -12 37 -5 61 40 48 92 -3 13 -49 7 -88 -11z"/>
<path d="M1378 4789 c-2 -7 -20 -19 -39 -26 -32 -12 -32 -13 -4 -7 31 6 63 29
53 39 -3 4 -8 1 -10 -6z"/>
<path d="M995 4531 c3 -5 1 -12 -5 -16 -11 -7 -4 -25 10 -25 14 0 41 31 35 41
-4 5 -15 9 -26 9 -11 0 -18 -4 -14 -9z"/>
<path d="M1929 4481 c-81 -26 -116 -50 -150 -101 -68 -102 -72 -209 -10 -283
14 -16 16 -16 37 4 20 19 27 20 57 10 21 -7 37 -20 40 -32 3 -13 12 -19 24
-17 10 2 17 -2 15 -9 -1 -7 5 -13 13 -13 8 0 15 -9 15 -20 0 -17 -5 -19 -25
-14 -21 5 -24 3 -19 -10 4 -10 13 -15 20 -12 8 3 14 0 14 -6 0 -9 3 -9 12 0
17 17 25 15 31 -9 5 -19 11 -20 74 -16 85 5 101 9 164 44 111 60 164 158 160
294 -1 51 -62 121 -142 167 -61 34 -69 36 -169 39 -80 2 -118 -2 -161 -16z"/>
<path d="M3710 4390 c-19 -12 -53 -31 -75 -43 -45 -25 -85 -95 -92 -162 -6
-50 35 -162 78 -216 46 -58 157 -136 226 -159 63 -22 192 -28 270 -14 69 12
129 52 155 103 47 88 53 122 33 182 -42 126 -273 292 -430 310 -38 4 -83 10
-100 13 -21 4 -41 -1 -65 -14z"/>
<path d="M810 4385 c-14 -8 -33 -14 -42 -15 -10 0 -18 -3 -18 -7 0 -5 -22 -19
-49 -32 -26 -13 -60 -39 -76 -58 l-27 -35 31 16 c17 9 33 16 36 16 3 0 13 6
21 15 9 8 24 15 34 15 10 0 31 10 47 23 15 13 40 31 56 40 46 29 34 49 -13 22z"/>
<path d="M4575 4390 c-3 -5 -1 -10 5 -10 6 0 16 -5 23 -10 7 -6 27 -24 46 -40
39 -34 47 -36 54 -16 6 16 -11 33 -66 64 -43 25 -53 27 -62 12z"/>
<path d="M418 4188 c-16 -5 -28 -13 -28 -18 0 -11 49 -5 62 8 15 15 -4 20 -34
10z"/>
<path d="M231 4049 c-16 -13 -18 -19 -8 -19 15 0 43 27 36 34 -2 3 -15 -4 -28
-15z"/>
<path d="M2495 2720 c-3 -5 -1 -10 4 -10 6 0 11 5 11 10 0 6 -2 10 -4 10 -3 0
-8 -4 -11 -10z"/>
<path d="M2765 2720 c-3 -5 -2 -10 4 -10 5 0 13 5 16 10 3 6 2 10 -4 10 -5 0
-13 -4 -16 -10z"/>
<path d="M2260 2695 c-7 -9 -11 -17 -9 -20 3 -2 10 5 17 15 14 24 10 26 -8 5z"/>
<path d="M2085 2640 c-18 -20 -11 -25 19 -14 17 6 23 34 8 34 -5 0 -17 -9 -27
-20z"/>
<path d="M2540 2649 c0 -5 5 -7 10 -4 6 3 10 8 10 11 0 2 -4 4 -10 4 -5 0 -10
-5 -10 -11z"/>
<path d="M2661 2644 c0 -11 3 -14 6 -6 3 7 2 16 -1 19 -3 4 -6 -2 -5 -13z"/>
<path d="M2720 2642 c0 -4 9 -8 20 -8 11 0 20 4 20 8 0 4 -9 8 -20 8 -11 0
-20 -4 -20 -8z"/>
<path d="M2850 2640 c0 -5 5 -10 11 -10 5 0 7 5 4 10 -3 6 -8 10 -11 10 -2 0
-4 -4 -4 -10z"/>
<path d="M2210 2621 c0 -5 5 -13 10 -16 6 -3 10 -2 10 4 0 5 -4 13 -10 16 -5
3 -10 2 -10 -4z"/>
<path d="M3305 2610 c3 -5 8 -10 11 -10 2 0 4 5 4 10 0 6 -5 10 -11 10 -5 0
-7 -4 -4 -10z"/>
<path d="M2410 2590 c0 -13 5 -18 15 -14 12 5 13 10 4 20 -15 19 -19 18 -19
-6z"/>
<path d="M2360 2590 c0 -5 5 -10 10 -10 6 0 10 5 10 10 0 6 -4 10 -10 10 -5 0
-10 -4 -10 -10z"/>
<path d="M2260 2570 c0 -5 7 -10 16 -10 8 0 12 5 9 10 -3 6 -10 10 -16 10 -5
0 -9 -4 -9 -10z"/>
<path d="M2970 2560 c-9 -6 -10 -10 -3 -10 6 0 15 5 18 10 8 12 4 12 -15 0z"/>
<path d="M2080 2551 c0 -6 5 -13 10 -16 6 -3 10 1 10 9 0 9 -4 16 -10 16 -5 0
-10 -4 -10 -9z"/>
<path d="M2615 2550 c-3 -5 -1 -10 4 -10 6 0 11 5 11 10 0 6 -2 10 -4 10 -3 0
-8 -4 -11 -10z"/>
<path d="M3015 2549 c-4 -6 -5 -12 -2 -15 2 -3 7 2 10 11 7 17 1 20 -8 4z"/>
<path d="M3153 2535 c0 -8 4 -12 9 -9 5 3 6 10 3 15 -9 13 -12 11 -12 -6z"/>
<path d="M2305 2530 c3 -5 8 -10 11 -10 2 0 4 5 4 10 0 6 -5 10 -11 10 -5 0
-7 -4 -4 -10z"/>
<path d="M3011 2494 c0 -11 3 -14 6 -6 3 7 2 16 -1 19 -3 4 -6 -2 -5 -13z"/>
<path d="M2185 2470 c3 -5 8 -10 11 -10 2 0 4 5 4 10 0 6 -5 10 -11 10 -5 0
-7 -4 -4 -10z"/>
<path d="M3307 2466 c-3 -8 -2 -18 4 -22 16 -9 22 2 11 21 -8 15 -10 16 -15 1z"/>
<path d="M3460 2460 c0 -5 5 -10 10 -10 6 0 10 5 10 10 0 6 -4 10 -10 10 -5 0
-10 -4 -10 -10z"/>
<path d="M3370 2409 c0 -5 5 -7 10 -4 6 3 10 8 10 11 0 2 -4 4 -10 4 -5 0 -10
-5 -10 -11z"/>
<path d="M3465 2390 c-3 -5 -1 -10 4 -10 6 0 11 5 11 10 0 6 -2 10 -4 10 -3 0
-8 -4 -11 -10z"/>
<path d="M3530 2384 c0 -8 5 -12 10 -9 6 3 10 10 10 16 0 5 -4 9 -10 9 -5 0
-10 -7 -10 -16z"/>
<path d="M3275 2380 c-3 -5 1 -10 10 -10 9 0 13 5 10 10 -3 6 -8 10 -10 10 -2
0 -7 -4 -10 -10z"/>
<path d="M1985 2350 c-3 -5 -1 -10 4 -10 6 0 11 5 11 10 0 6 -2 10 -4 10 -3 0
-8 -4 -11 -10z"/>
<path d="M3410 2332 c0 -10 -5 -23 -11 -29 -6 -6 -7 -13 -2 -16 6 -4 17 9 26
28 14 30 15 35 2 35 -8 0 -15 -8 -15 -18z"/>
<path d="M3332 2325 c-11 -13 -9 -15 8 -15 11 0 20 7 20 15 0 19 -11 19 -28 0z"/>
<path d="M3463 2323 c-15 -5 -17 -23 -4 -23 5 0 11 7 15 15 3 8 4 15 3 14 -1
0 -8 -3 -14 -6z"/>
<path d="M3510 2265 c0 -8 5 -15 10 -15 6 0 10 7 10 15 0 8 -4 15 -10 15 -5 0
-10 -7 -10 -15z"/>
<path d="M1760 2200 c0 -5 5 -10 10 -10 6 0 10 5 10 10 0 6 -4 10 -10 10 -5 0
-10 -4 -10 -10z"/>
<path d="M3580 2174 c0 -8 5 -12 10 -9 6 3 10 10 10 16 0 5 -4 9 -10 9 -5 0
-10 -7 -10 -16z"/>
<path d="M3613 2163 c-7 -2 -13 -14 -13 -24 0 -23 15 -17 30 12 11 19 6 22
-17 12z"/>
<path d="M3676 2151 c-4 -7 -5 -15 -2 -18 9 -9 19 4 14 18 -4 11 -6 11 -12 0z"/>
<path d="M3665 2100 c3 -5 8 -10 11 -10 2 0 4 5 4 10 0 6 -5 10 -11 10 -5 0
-7 -4 -4 -10z"/>
<path d="M3680 2000 c0 -5 5 -10 10 -10 6 0 10 5 10 10 0 6 -4 10 -10 10 -5 0
-10 -4 -10 -10z"/>
<path d="M3743 1985 c-5 -9 -21 -22 -34 -29 -18 -9 -23 -18 -21 -36 5 -31 1
-29 40 -23 26 4 30 8 21 19 -9 11 -8 21 1 44 14 33 8 52 -7 25z m-13 -55 c0
-5 -8 -10 -17 -10 -15 0 -16 2 -3 10 19 12 20 12 20 0z"/>
<path d="M3180 1951 c-58 -11 -129 -67 -151 -118 -31 -73 -33 -111 -9 -191 18
-60 29 -78 68 -112 26 -22 50 -40 55 -40 4 0 24 -11 45 -23 64 -41 195 -21
250 37 36 38 49 74 57 164 8 77 0 100 -58 167 -44 51 -106 95 -149 104 -18 5
-42 10 -53 13 -11 3 -36 2 -55 -1z"/>
<path d="M3759 1860 c-19 -16 -20 -19 -5 -13 13 4 17 3 12 -5 -4 -7 -2 -12 4
-12 6 0 10 6 8 13 -2 6 2 14 7 17 17 9 17 -29 1 -62 -20 -38 -20 -48 -2 -48 7
0 16 -9 19 -20 7 -26 29 -26 45 0 10 17 10 21 -3 25 -49 16 -47 12 -30 51 22
53 20 74 -9 74 -13 0 -34 -9 -47 -20z"/>
<path d="M1505 1860 c-3 -5 -1 -10 4 -10 6 0 11 5 11 10 0 6 -2 10 -4 10 -3 0
-8 -4 -11 -10z"/>
<path d="M4275 1800 c-3 -5 -2 -10 4 -10 5 0 13 5 16 10 3 6 2 10 -4 10 -5 0
-13 -4 -16 -10z"/>
<path d="M2220 1784 c-18 -10 -26 -10 -32 -1 -5 8 -9 6 -14 -6 -3 -10 -17 -17
-31 -17 -13 0 -34 -5 -45 -11 -17 -9 -18 -13 -7 -20 11 -7 9 -9 -6 -10 -11 -1
-25 -1 -32 0 -6 1 -14 -3 -18 -9 -3 -5 -21 -10 -38 -10 -18 0 -27 -4 -20 -8 6
-4 14 -19 17 -34 4 -22 1 -26 -12 -21 -9 3 -23 10 -29 16 -12 9 -17 3 -14 -15
0 -5 -5 -8 -12 -8 -9 0 -8 -3 2 -9 10 -7 8 -12 -9 -24 -14 -9 -19 -20 -15 -28
5 -7 4 -10 -2 -6 -14 9 -23 -16 -23 -61 1 -81 77 -185 169 -231 172 -86 337
-6 398 194 13 45 -9 180 -34 208 -11 12 -23 30 -26 40 -4 9 -18 22 -32 27 -14
5 -25 14 -25 19 0 9 -62 42 -77 40 -4 -1 -19 -7 -33 -15z m-14 -41 c-2 -10
-11 -20 -22 -21 -10 -2 -23 -8 -28 -12 -5 -5 -15 -6 -23 -3 -10 4 -4 12 19 29
38 28 57 31 54 7z m45 5 c2 -22 -2 -43 -11 -51 -4 -5 -5 4 -2 19 3 19 1 25 -7
20 -12 -8 -16 6 -4 17 10 11 23 8 24 -5z m-31 -38 c0 -5 -8 -10 -17 -10 -15 0
-16 2 -3 10 19 12 20 12 20 0z m-34 -22 c4 -6 3 -8 -4 -4 -6 3 -14 -4 -18 -16
-4 -13 -11 -26 -17 -30 -15 -9 -38 2 -30 16 4 6 -1 5 -10 -3 -22 -17 -23 2 -1
23 17 18 28 21 19 6 -10 -16 13 -12 27 5 16 18 25 19 34 3z m-112 -20 c-14 -6
-28 -7 -39 -1 -13 8 -8 10 22 11 33 0 35 -1 17 -10z m116 -23 c-7 -9 -15 -13
-17 -11 -7 7 7 26 19 26 6 0 6 -6 -2 -15z m-90 -35 c0 -5 -5 -10 -11 -10 -5 0
-7 5 -4 10 3 6 8 10 11 10 2 0 4 -4 4 -10z m130 6 c0 -2 -9 -6 -20 -9 -11 -3
-18 -1 -14 4 5 9 34 13 34 5z m-45 -36 c-3 -5 -11 -10 -16 -10 -6 0 -7 5 -4
10 3 6 11 10 16 10 6 0 7 -4 4 -10z m65 -20 c0 -5 -4 -10 -10 -10 -5 0 -10 5
-10 10 0 6 5 10 10 10 6 0 10 -4 10 -10z"/>
<path d="M1462 1730 c0 -14 2 -19 5 -12 2 6 2 18 0 25 -3 6 -5 1 -5 -13z"/>
<path d="M2055 1740 c-3 -5 -1 -10 4 -10 6 0 11 5 11 10 0 6 -2 10 -4 10 -3 0
-8 -4 -11 -10z"/>
<path d="M3780 1692 c0 -12 19 -26 26 -19 2 2 -2 10 -11 17 -9 8 -15 8 -15 2z"/>
<path d="M3858 1692 c-28 -3 -35 -12 -20 -26 4 -4 7 -15 8 -24 3 -44 5 -52 13
-52 14 0 23 32 12 43 -6 6 -2 16 12 28 26 21 14 36 -25 31z"/>
<path d="M3910 1613 c0 -25 -23 -45 -46 -41 -13 2 -18 -6 -21 -39 -2 -24 0
-43 5 -43 14 0 53 46 45 53 -3 4 -2 7 4 7 12 0 28 68 19 78 -3 3 -6 -4 -6 -15z"/>
<path d="M1400 1595 c0 -8 5 -15 10 -15 6 0 10 7 10 15 0 8 -4 15 -10 15 -5 0
-10 -7 -10 -15z"/>
<path d="M3894 1439 c-14 -16 -15 -23 -6 -26 6 -3 12 -11 12 -19 0 -8 3 -14 8
-14 4 0 8 18 8 40 1 22 0 40 -1 40 -1 0 -10 -10 -21 -21z"/>
<path d="M3996 1424 c-9 -25 4 -37 19 -17 13 18 11 33 -5 33 -4 0 -11 -7 -14
-16z"/>
<path d="M3945 1390 c-3 -6 1 -7 9 -4 18 7 21 14 7 14 -6 0 -13 -4 -16 -10z"/>
<path d="M3876 1353 c-3 -4 -6 -19 -6 -35 0 -15 -5 -37 -12 -47 -16 -27 -4
-51 23 -44 20 5 21 3 15 -20 -4 -16 -2 -27 4 -27 5 0 10 7 10 15 0 8 9 19 20
25 31 17 24 29 -14 23 l-34 -5 8 33 c5 19 12 44 15 55 6 21 -15 40 -29 27z"/>
<path d="M3930 1326 c0 -9 5 -16 10 -16 6 0 10 4 10 9 0 6 -4 13 -10 16 -5 3
-10 -1 -10 -9z"/>
<path d="M3987 1303 c-4 -3 -7 -11 -7 -17 0 -6 5 -5 12 2 6 6 9 14 7 17 -3 3
-9 2 -12 -2z"/>
<path d="M1290 1260 c0 -5 5 -10 10 -10 6 0 10 5 10 10 0 6 -4 10 -10 10 -5 0
-10 -4 -10 -10z"/>
<path d="M3856 1144 c4 -38 8 -71 10 -73 2 -2 10 2 19 9 11 9 12 16 5 25 -7 9
-6 16 5 25 21 17 19 30 -5 30 -12 0 -17 5 -14 13 3 8 -2 20 -11 27 -14 11 -15
6 -9 -56z"/>
<path d="M4015 1200 c-3 -5 1 -10 9 -10 9 0 16 5 16 10 0 6 -4 10 -9 10 -6 0
-13 -4 -16 -10z"/>
<path d="M1360 1180 c0 -5 5 -10 11 -10 5 0 7 5 4 10 -3 6 -8 10 -11 10 -2 0
-4 -4 -4 -10z"/>
<path d="M1366 1152 c-3 -6 -1 -14 5 -17 15 -10 25 3 12 16 -7 7 -13 7 -17 1z"/>
<path d="M3945 1141 c-3 -5 -1 -12 5 -16 5 -3 10 1 10 9 0 18 -6 21 -15 7z"/>
<path d="M2550 1124 c0 -8 5 -12 10 -9 6 4 8 11 5 16 -9 14 -15 11 -15 -7z"/>
<path d="M1335 1080 c-3 -6 1 -7 9 -4 18 7 21 14 7 14 -6 0 -13 -4 -16 -10z"/>
<path d="M2670 1081 c0 -6 -8 -8 -17 -5 -16 5 -16 4 0 -6 13 -8 22 -9 29 -2 6
6 6 12 -1 16 -6 4 -11 3 -11 -3z"/>
<path d="M4060 1079 c0 -5 5 -7 10 -4 6 3 10 8 10 11 0 2 -4 4 -10 4 -5 0 -10
-5 -10 -11z"/>
<path d="M3833 1034 c-3 -8 -1 -20 4 -25 12 -12 48 14 39 29 -10 17 -36 15
-43 -4z"/>
<path d="M3904 989 c-3 -6 -17 -9 -30 -6 -30 5 -53 -18 -35 -36 10 -9 15 -8
25 6 7 9 23 17 35 17 12 0 21 6 21 15 0 18 -6 19 -16 4z"/>
<path d="M1421 930 c-1 -27 4 -52 10 -56 15 -9 31 18 19 30 -6 6 -10 22 -10
37 0 50 -17 40 -19 -11z"/>
<path d="M3902 899 c2 -6 8 -10 13 -10 5 0 11 4 13 10 2 6 -4 11 -13 11 -9 0
-15 -5 -13 -11z"/>
<path d="M3797 873 c-4 -10 -14 -28 -22 -40 -17 -22 -16 -22 14 -10 22 8 27
14 20 23 -7 8 -6 14 3 17 10 3 10 8 2 16 -9 10 -13 8 -17 -6z"/>
<path d="M3840 834 c0 -8 5 -12 10 -9 6 3 10 10 10 16 0 5 -4 9 -10 9 -5 0
-10 -7 -10 -16z"/>
<path d="M3895 840 c-3 -5 3 -10 15 -10 12 0 18 5 15 10 -3 6 -10 10 -15 10
-5 0 -12 -4 -15 -10z"/>
<path d="M3740 752 c0 -11 9 -22 20 -25 13 -3 20 0 20 9 0 7 -9 18 -20 24 -17
9 -20 8 -20 -8z"/>
<path d="M3877 655 c-9 -13 -13 -26 -8 -29 8 -5 41 34 41 49 0 12 -16 3 -33
-20z"/>
<path d="M3790 659 c0 -5 5 -7 10 -4 6 3 10 8 10 11 0 2 -4 4 -10 4 -5 0 -10
-5 -10 -11z"/>
<path d="M3740 581 c-7 -15 -7 -21 0 -21 12 0 25 28 17 36 -3 3 -10 -4 -17
-15z"/>
<path d="M3870 572 c0 -20 36 -59 46 -49 3 3 3 19 -1 36 -7 35 -45 45 -45 13z"/>
<path d="M3703 513 c8 -41 -1 -53 -34 -46 -23 4 -29 2 -29 -12 0 -22 -47 -78
-55 -65 -9 15 -25 12 -25 -4 0 -8 -4 -16 -9 -18 -5 -1 -12 -20 -16 -40 -8 -43
5 -50 29 -17 8 12 25 27 38 33 12 6 24 20 26 31 5 27 20 44 62 70 29 18 36 28
34 51 -2 42 -3 44 -15 44 -7 0 -9 -11 -6 -27z"/>
<path d="M3580 513 c-14 -7 -18 -13 -10 -13 17 0 47 17 40 23 -3 2 -16 -2 -30
-10z"/>
<path d="M3810 467 c0 -8 7 -17 15 -21 8 -3 15 -2 15 3 0 5 -7 14 -15 21 -12
10 -15 10 -15 -3z"/>
<path d="M3540 450 c-13 -8 -12 -10 3 -10 9 0 17 5 17 10 0 12 -1 12 -20 0z"/>
<path d="M3935 451 c-3 -5 -1 -12 5 -16 12 -7 30 2 30 16 0 12 -27 12 -35 0z"/>
<path d="M3482 383 c2 -9 8 -18 15 -20 7 -3 9 3 6 16 -6 25 -26 28 -21 4z"/>
<path d="M3665 330 c-8 -13 8 -18 29 -10 19 6 19 7 -2 12 -12 4 -24 2 -27 -2z"/>
<path d="M3353 275 c-19 -21 -16 -27 7 -13 11 7 20 16 20 20 0 12 -14 9 -27
-7z"/>
<path d="M3499 264 c-15 -18 -19 -63 -6 -71 13 -8 24 8 31 50 7 39 -3 48 -25
21z"/>
<path d="M3626 225 c4 -8 8 -15 10 -15 2 0 4 7 4 15 0 8 -4 15 -10 15 -5 0 -7
-7 -4 -15z"/>
<path d="M3387 143 c-12 -11 -8 -23 8 -23 8 0 15 7 15 15 0 16 -12 20 -23 8z"/>
<path d="M3735 110 c-3 -5 -1 -10 4 -10 6 0 11 5 11 10 0 6 -2 10 -4 10 -3 0
-8 -4 -11 -10z"/>
<path d="M3595 90 c-3 -5 -1 -10 4 -10 6 0 11 5 11 10 0 6 -2 10 -4 10 -3 0
-8 -4 -11 -10z"/>
<path d="M3379 43 c-5 -15 -6 -30 -1 -35 12 -12 46 28 39 47 -9 23 -26 18 -38
-12z"/>
<path d="M2775 10 c-3 -5 3 -10 15 -10 12 0 18 5 15 10 -3 6 -10 10 -15 10 -5
0 -12 -4 -15 -10z"/>
<path d="M2428 3 c7 -3 16 -2 19 1 4 3 -2 6 -13 5 -11 0 -14 -3 -6 -6z"/>
</g>
</svg>
